<svg xmlns="http://www.w3.org/2000/svg" version="1.1" xmlns:xlink="http://www.w3.org/1999/xlink" xmlns:svgjs="http://svgjs.dev/svgjs" width="1000" height="625" viewBox="0 0 1000 625"><g transform="matrix(1,0,0,1,0,0)"><svg viewBox="0 0 576 360" data-background-color="#b4f1ff" preserveAspectRatio="xMidYMid meet" height="625" width="1000" xmlns="http://www.w3.org/2000/svg" xmlns:xlink="http://www.w3.org/1999/xlink"><defs></defs><g id="tight-bounds" transform="matrix(1,0,0,1,0,0)"><svg viewBox="0 0 576 360" height="360" width="576"><g><svg></svg></g><g><svg viewBox="0 0 576 360" height="360" width="576"><g><path d="M132.115 90l155.885-90 155.885 90v180l-155.885 90-155.885-90zM139.31 265.846l148.69 85.846 148.69-85.846v-171.692l-148.69-85.846-148.69 85.846z" fill="#ffffff" data-fill-palette-color="tertiary"></path></g><g transform="matrix(1,0,0,1,172.8,140.11029176017954)"><svg viewBox="0 0 230.4 79.77941647964091" height="79.77941647964091" width="230.4"><g><svg viewBox="0 0 230.4 79.77941647964091" height="79.77941647964091" width="230.4"><g><svg viewBox="0 0 230.4 79.77941647964091" height="79.77941647964091" width="230.4"><g><svg viewBox="0 0 230.4 79.77941647964091" height="79.77941647964091" width="230.4"><g><svg viewBox="0 0 230.4 79.77941647964091" height="79.77941647964091" width="230.4"><g><svg viewBox="0 0 230.4 79.77941647964091" height="79.77941647964091" width="230.4"><g transform="matrix(1,0,0,1,0,0)"><svg width="230.4" viewBox="2.85 -40.5 155.94 54" height="79.77941647964091" data-palette-color="#ffffff"><path d="M14.85 0.55Q12.15 0.55 10 0.1 7.85-0.35 5.2-1.1L5.2-1.1Q3.45-1.6 2.85-1.65L2.85-1.65 3.3-10.9 7.35-10.9 8.45-4.45Q9.1-3.75 10.78-3.2 12.45-2.65 14.6-2.65L14.6-2.65Q17.95-2.65 19.63-4.13 21.3-5.6 21.3-8.25L21.3-8.25Q21.3-10 20.3-11.28 19.3-12.55 17.55-13.58 15.8-14.6 12.75-15.95L12.75-15.95Q8.6-17.85 5.88-20.48 3.15-23.1 3.15-27.6L3.15-27.6Q3.15-30.4 4.6-32.68 6.05-34.95 8.93-36.27 11.8-37.6 15.95-37.6L15.95-37.6Q18.4-37.6 20.28-37.25 22.15-36.9 24.35-36.3L24.35-36.3Q25.65-35.95 26.3-35.85L26.3-35.85 26-27.1 22-27.1 20.95-33.25Q20.5-33.7 19.15-34.13 17.8-34.55 16.15-34.55L16.15-34.55Q13.15-34.55 11.63-33.18 10.1-31.8 10.1-29.5L10.1-29.5Q10.1-27.65 11.23-26.3 12.35-24.95 13.95-24.03 15.55-23.1 19-21.4L19-21.4Q21.8-20.05 23.8-18.75 25.8-17.45 27.25-15.38 28.7-13.3 28.7-10.5L28.7-10.5Q28.7-7.75 27.33-5.25 25.95-2.75 22.83-1.1 19.7 0.55 14.85 0.55L14.85 0.55ZM45 0.55Q38.4 0.55 35.17-3.33 31.95-7.2 31.95-13.9L31.95-13.9Q31.95-18.4 33.62-21.7 35.3-25 38.35-26.75 41.4-28.5 45.4-28.5L45.4-28.5Q50.4-28.5 53.1-25.88 55.8-23.25 55.9-18.4L55.9-18.4Q55.9-15.1 55.5-13.5L55.5-13.5 39.25-13.5Q39.45-8.95 41.4-6.43 43.35-3.9 46.95-3.9L46.95-3.9Q48.9-3.9 50.97-4.55 53.05-5.2 54.25-6.1L54.25-6.1 55.5-3.35Q54.15-1.9 51.12-0.68 48.1 0.55 45 0.55L45 0.55ZM39.25-16.5L48.9-16.5Q49-17.9 49-18.65L49-18.65Q49-25.3 44.55-25.3L44.55-25.3Q42.1-25.3 40.75-23.35 39.4-21.4 39.25-16.5L39.25-16.5ZM59.9 0L59.9-2.95 63.2-3.35 63.2-23.05 60-23.95 60-27.4 67.75-28.45 67.9-28.45 69.15-27.45 69.15-26.35 69-22.3 69.15-22.3Q69.5-23.3 70.8-24.78 72.09-26.25 74.07-27.38 76.05-28.5 78.34-28.5L78.34-28.5Q79.45-28.5 80.25-28.2L80.25-28.2 80.25-20.7Q78.75-21.75 76.59-21.75L76.59-21.75Q72.95-21.75 70.25-19.8L70.25-19.8 70.25-3.4 76.05-2.95 76.05 0 59.9 0ZM95.54 13.5Q88.84 13.5 85.84 11.4 82.84 9.3 82.84 5.7L82.84 5.7Q82.84 3.65 84.22 1.83 85.59 0 87.54-0.9L87.54-0.9Q85.24-2.25 85.24-5.2L85.24-5.2Q85.24-6.9 86.34-8.43 87.44-9.95 89.19-10.8L89.19-10.8Q86.44-11.85 85.09-14 83.74-16.15 83.74-19.1L83.74-19.1Q83.74-21.95 85.42-24.08 87.09-26.2 89.92-27.35 92.74-28.5 96.04-28.5L96.04-28.5Q101.89-28.5 104.74-26.25L104.74-26.25Q105.39-27.1 106.94-27.85 108.49-28.6 110.14-28.6L110.14-28.6 111.89-28.6 111.89-23.15 106.74-23.15Q107.49-21.55 107.49-19.75L107.49-19.75Q107.54-15.2 104.29-12.48 101.04-9.75 95.39-9.75L95.39-9.75Q93.04-9.75 91.44-10.1L91.44-10.1Q90.94-9.45 90.67-8.72 90.39-8 90.39-7.45L90.39-7.45Q90.39-5.8 91.57-5.2 92.74-4.6 95.79-4.6L95.79-4.6 101.14-4.6Q111.34-4.6 111.34 2.8L111.34 2.8Q111.34 5.9 109.14 8.35 106.94 10.8 103.29 12.15 99.64 13.5 95.54 13.5L95.54 13.5ZM95.89-12.85Q100.54-12.85 100.54-19.2L100.54-19.2Q100.54-22.45 99.37-23.98 98.19-25.5 95.79-25.5L95.79-25.5Q93.44-25.5 92.17-23.98 90.89-22.45 90.89-19.4L90.89-19.4Q90.89-12.85 95.89-12.85L95.89-12.85ZM96.29 10.05Q99.44 10.05 101.74 8.53 104.04 7 104.04 4.3L104.04 4.3Q104.04 2.15 102.92 1.2 101.79 0.25 98.89 0.25L98.89 0.25 93.44 0.25Q92.19 0.25 91.14 0.1L91.14 0.1Q89.79 1.9 89.79 4.4L89.79 4.4Q89.79 7.15 91.29 8.6 92.79 10.05 96.29 10.05L96.29 10.05ZM120.49-32.35Q118.69-32.35 117.64-33.4 116.59-34.45 116.59-36.1L116.59-36.1Q116.59-38 117.79-39.25 118.99-40.5 120.99-40.5L120.99-40.5Q122.99-40.5 124.04-39.43 125.09-38.35 125.09-36.75L125.09-36.75Q125.09-34.75 123.89-33.55 122.69-32.35 120.54-32.35L120.54-32.35 120.49-32.35ZM117.84-3.45L117.84-23.05 114.29-24 114.29-27.35 123.44-28.45 123.54-28.45 124.94-27.45 124.94-3.4 128.29-3 128.29 0 114.34 0 114.34-3 117.84-3.45ZM131.89-13.85Q131.89-18.55 133.76-21.85 135.64-25.15 138.79-26.83 141.94-28.5 145.64-28.5L145.64-28.5Q151.94-28.5 155.36-24.63 158.79-20.75 158.79-14.1L158.79-14.1Q158.79-9.35 156.91-6.03 155.04-2.7 151.91-1.07 148.79 0.55 145.04 0.55L145.04 0.55Q138.79 0.55 135.34-3.33 131.89-7.2 131.89-13.85L131.89-13.85ZM145.44-2.7Q151.09-2.7 151.09-13.6L151.09-13.6Q151.09-19.3 149.74-22.28 148.39-25.25 145.34-25.25L145.34-25.25Q139.54-25.25 139.54-14.35L139.54-14.35Q139.54-8.65 140.96-5.68 142.39-2.7 145.44-2.7L145.44-2.7Z" opacity="1" transform="matrix(1,0,0,1,0,0)" fill="#ffffff" class="undefined-text-0" data-fill-palette-color="primary" id="text-0"></path></svg></g></svg></g></svg></g></svg></g></svg></g></svg></g></svg></g></svg></g></svg><rect width="576" height="360" fill="none" stroke="none" visibility="hidden"></rect></g></svg></g></svg>